<?xml version="1.0" encoding="UTF-8"?>
<svg xmlns="http://www.w3.org/2000/svg" xmlns:xlink="http://www.w3.org/1999/xlink" width="48pt" height="48pt" viewBox="0 0 48 48" version="1.1">
<g id="surface4492759">
<path style=" stroke:none;fill-rule:nonzero;fill:rgb(80%,80%,80%);fill-opacity:1;" d="M 23 11.898438 L 25 11.898438 L 25 36.101562 L 23 36.101562 Z M 23 11.898438 "/>
<path style=" stroke:none;fill-rule:nonzero;fill:rgb(80%,80%,80%);fill-opacity:1;" d="M 12.6875 18.824219 L 13.664062 17.078125 L 35.226562 29.128906 L 34.25 30.875 Z M 12.6875 18.824219 "/>
<path style=" stroke:none;fill-rule:nonzero;fill:rgb(80%,80%,80%);fill-opacity:1;" d="M 12.6875 29.175781 L 34.25 17.125 L 35.226562 18.871094 L 13.664062 30.921875 Z M 12.6875 29.175781 "/>
<path style=" stroke:none;fill-rule:nonzero;fill:rgb(80%,80%,80%);fill-opacity:1;" d="M 17.109375 14.125 L 18.824219 13.097656 L 31.839844 34.789062 L 30.125 35.820312 Z M 17.109375 14.125 "/>
<path style=" stroke:none;fill-rule:nonzero;fill:rgb(80%,80%,80%);fill-opacity:1;" d="M 16.105469 34.875 L 29.125 13.183594 L 30.839844 14.210938 L 17.820312 35.902344 Z M 16.105469 34.875 "/>
<path style=" stroke:none;fill-rule:nonzero;fill:rgb(80%,80%,80%);fill-opacity:1;" d="M 11 23 L 37 23 L 37 25 L 11 25 Z M 11 23 "/>
<path style=" stroke:none;fill-rule:nonzero;fill:rgb(80%,80%,80%);fill-opacity:1;" d="M 20 14.5 C 20 15.300781 19.300781 16 18.5 16 C 17.699219 16 17 15.300781 17 14.5 C 17 13.699219 17.699219 13 18.5 13 C 19.300781 13 20 13.699219 20 14.5 Z M 38 24 C 38 24.800781 37.300781 25.5 36.5 25.5 C 35.699219 25.5 35 24.800781 35 24 C 35 23.199219 35.699219 22.5 36.5 22.5 C 37.300781 22.5 38 23.199219 38 24 Z M 13 24 C 13 24.800781 12.300781 25.5 11.5 25.5 C 10.699219 25.5 10 24.800781 10 24 C 10 23.199219 10.699219 22.5 11.5 22.5 C 12.300781 22.5 13 23.199219 13 24 Z M 32 34.5 C 32 35.300781 31.300781 36 30.5 36 C 29.699219 36 29 35.300781 29 34.5 C 29 33.699219 29.699219 33 30.5 33 C 31.300781 33 32 33.699219 32 34.5 Z M 31 14.5 C 31 15.300781 30.300781 16 29.5 16 C 28.699219 16 28 15.300781 28 14.5 C 28 13.699219 28.699219 13 29.5 13 C 30.300781 13 31 13.699219 31 14.5 Z M 19 34.5 C 19 35.300781 18.300781 36 17.5 36 C 16.699219 36 16 35.300781 16 34.5 C 16 33.699219 16.699219 33 17.5 33 C 18.300781 33 19 33.699219 19 34.5 Z M 19 34.5 "/>
<path style=" stroke:none;fill-rule:nonzero;fill:rgb(80%,80%,80%);fill-opacity:1;" d="M 5.585938 33.105469 L 13.605469 28.597656 L 14.585938 30.339844 L 6.566406 34.851562 Z M 5.585938 33.105469 "/>
<path style=" stroke:none;fill-rule:nonzero;fill:rgb(80%,80%,80%);fill-opacity:1;" d="M 33.84375 17.335938 L 41.429688 13.074219 L 42.410156 14.816406 L 34.824219 19.078125 Z M 33.84375 17.335938 "/>
<path style=" stroke:none;fill-rule:nonzero;fill:rgb(80%,80%,80%);fill-opacity:1;" d="M 41.300781 21.398438 L 32.699219 19.199219 L 35 10.699219 L 36.898438 11.300781 L 35.199219 17.699219 L 41.800781 19.5 Z M 13 37.300781 L 11.101562 36.699219 L 12.800781 30.300781 L 6.199219 28.5 L 6.699219 26.601562 L 15.300781 28.800781 Z M 23 4 L 25 4 L 25 13 L 23 13 Z M 23 4 "/>
<path style=" stroke:none;fill-rule:nonzero;fill:rgb(80%,80%,80%);fill-opacity:1;" d="M 24 14.300781 L 17.699219 8.199219 L 19.101562 6.800781 L 24 11.5 L 28.898438 6.800781 L 30.300781 8.199219 Z M 23 35 L 25 35 L 25 44 L 23 44 Z M 23 35 "/>
<path style=" stroke:none;fill-rule:nonzero;fill:rgb(80%,80%,80%);fill-opacity:1;" d="M 28.898438 41.199219 L 24 36.5 L 19.101562 41.199219 L 17.699219 39.800781 L 24 33.699219 L 30.300781 39.800781 Z M 41.398438 34.898438 L 40.5 34.398438 C 38.300781 33.199219 36.199219 32 34 30.699219 L 33.101562 30.199219 L 34.101562 28.5 L 35 29 C 37.199219 30.199219 39.300781 31.398438 41.5 32.699219 L 42.398438 33.199219 Z M 41.398438 34.898438 "/>
<path style=" stroke:none;fill-rule:nonzero;fill:rgb(80%,80%,80%);fill-opacity:1;" d="M 35 37.300781 L 32.699219 28.800781 L 41.300781 26.601562 L 41.800781 28.5 L 35.199219 30.300781 L 36.898438 36.699219 Z M 35 37.300781 "/>
<path style=" stroke:none;fill-rule:nonzero;fill:rgb(80%,80%,80%);fill-opacity:1;" d="M 5.621094 14.84375 L 6.59375 13.097656 L 14.714844 17.636719 L 13.738281 19.378906 Z M 5.621094 14.84375 "/>
<path style=" stroke:none;fill-rule:nonzero;fill:rgb(80%,80%,80%);fill-opacity:1;" d="M 6.699219 21.398438 L 6.199219 19.5 L 12.800781 17.699219 L 11.101562 11.300781 L 13 10.699219 L 15.300781 19.199219 Z M 6.699219 21.398438 "/>
</g>
</svg>
