<svg xmlns="http://www.w3.org/2000/svg" viewBox="0 0 48 48" width="48px" height="48px"><path fill="#536dfe" d="M23 11.9H25V36.1H23z"/><path fill="#536dfe" d="M23 11.6H25V36.3H23z" transform="rotate(-60.802 24 24)"/><path fill="#536dfe" d="M11.6 23H36.3V25H11.6z" transform="rotate(-29.208 23.998 23.998)"/><path fill="#536dfe" d="M23.5 11.8H25.5V37.1H23.5z" transform="rotate(-30.963 24.501 24.5)"/><path fill="#536dfe" d="M10.8 23.5H36.1V25.5H10.8z" transform="rotate(-59.028 23.5 24.5)"/><path fill="#536dfe" d="M11 23H37V25H11z"/><path fill="#448aff" d="M20 14.5c0 .8-.7 1.5-1.5 1.5S17 15.3 17 14.5s.7-1.5 1.5-1.5S20 13.7 20 14.5zM38 24c0 .8-.7 1.5-1.5 1.5S35 24.8 35 24s.7-1.5 1.5-1.5S38 23.2 38 24zM13 24c0 .8-.7 1.5-1.5 1.5S10 24.8 10 24s.7-1.5 1.5-1.5S13 23.2 13 24zM32 34.5c0 .8-.7 1.5-1.5 1.5S29 35.3 29 34.5s.7-1.5 1.5-1.5S32 33.7 32 34.5zM31 14.5c0 .8-.7 1.5-1.5 1.5S28 15.3 28 14.5s.7-1.5 1.5-1.5S31 13.7 31 14.5zM19 34.5c0 .8-.7 1.5-1.5 1.5S16 35.3 16 34.5s.7-1.5 1.5-1.5S19 33.7 19 34.5z"/><path fill="#8c9eff" d="M5.5 30.7H14.7V32.7H5.5z" transform="rotate(-29.355 10.138 31.74)"/><path fill="#8c9eff" d="M33.8 15.1H42.5V17.1H33.8z" transform="rotate(-29.32 38.094 16.131)"/><path fill="#8c9eff" d="M41.3 21.4L32.7 19.2 35 10.7 36.9 11.3 35.2 17.7 41.8 19.5zM13 37.3L11.1 36.7 12.8 30.3 6.2 28.5 6.7 26.6 15.3 28.8zM23 4H25V13H23z"/><path fill="#8c9eff" d="M24 14.3L17.7 8.2 19.1 6.8 24 11.5 28.9 6.8 30.3 8.2zM23 35H25V44H23z"/><path fill="#8c9eff" d="M28.9 41.2L24 36.5 19.1 41.2 17.7 39.8 24 33.7 30.3 39.8zM41.4 34.9l-.9-.5c-2.2-1.2-4.3-2.4-6.5-3.7l-.9-.5 1-1.7L35 29c2.2 1.2 4.3 2.4 6.5 3.7l.9.5L41.4 34.9z"/><path fill="#8c9eff" d="M35 37.3L32.7 28.8 41.3 26.6 41.8 28.5 35.2 30.3 36.9 36.7z"/><path fill="#8c9eff" d="M9.2 11.6H11.2V20.9H9.2z" transform="rotate(-60.797 10.174 16.273)"/><path fill="#8c9eff" d="M6.7 21.4L6.2 19.5 12.8 17.7 11.1 11.3 13 10.7 15.3 19.2z"/></svg>